<svg xmlns="http://www.w3.org/2000/svg" viewBox="0 0 64 64" role="img" aria-labelledby="title">
  <title>Penncrest Theater lion favicon</title>
  <defs>
    <linearGradient id="bg" x1="0%" y1="0%" x2="100%" y2="100%">
      <stop offset="0%" stop-color="#7f1018" />
      <stop offset="58%" stop-color="#a3131d" />
      <stop offset="58%" stop-color="#d9a521" />
      <stop offset="100%" stop-color="#f2c14e" />
    </linearGradient>
    <linearGradient id="face" x1="0%" y1="0%" x2="0%" y2="100%">
      <stop offset="0%" stop-color="#fff8e6" />
      <stop offset="100%" stop-color="#fde7b0" />
    </linearGradient>
  </defs>

  <rect width="64" height="64" rx="14" fill="url(#bg)" />
  <path d="M-6 54L34 10l36 22v32H-6Z" fill="#f7d36f" opacity="0.18" />
  <circle cx="32" cy="33" r="22" fill="#7c1017" opacity="0.2" />

  <g stroke="#6f0d14" stroke-width="1.6" stroke-linecap="round" stroke-linejoin="round">
    <circle cx="20" cy="22" r="6.5" fill="#f2c14e" />
    <circle cx="31.8" cy="18.8" r="6.8" fill="#f2c14e" />
    <circle cx="44" cy="22" r="6.5" fill="#f2c14e" />
    <circle cx="17.5" cy="34" r="6.5" fill="#f2c14e" />
    <circle cx="46.5" cy="34" r="6.5" fill="#f2c14e" />
    <circle cx="21" cy="45" r="6.2" fill="#f2c14e" />
    <circle cx="32" cy="48" r="6.5" fill="#f2c14e" />
    <circle cx="43" cy="45" r="6.2" fill="#f2c14e" />

    <path d="M23 23.5 19.2 17.2 26.6 19.4Z" fill="url(#face)" />
    <path d="M41 23.5 44.8 17.2 37.4 19.4Z" fill="url(#face)" />
    <path d="M22 24.5c2.4-5.7 7.1-8.7 10-8.7s7.6 3 10 8.7v11.9c0 6.2-4.5 11.6-10 11.6s-10-5.4-10-11.6Z" fill="url(#face)" />

    <path d="M26.4 28.5c1.9-1.4 3.7-1.4 5.4 0-1.2 1.9-4.2 2.1-5.4 0Z" fill="#6f0d14" stroke="none" />
    <path d="M37.6 28.5c-1.9-1.4-3.7-1.4-5.4 0 1.2 1.9 4.2 2.1 5.4 0Z" fill="#6f0d14" stroke="none" />
    <path d="M28.7 35.1h6.6L32 39.4Z" fill="#6f0d14" stroke="none" />
    <path d="M26.4 41.1c1.5 1.8 3.4 2.7 5.6 2.7s4.1-.9 5.6-2.7" fill="none" />
    <path d="M32 39.4v2.8" fill="none" />
  </g>
</svg>
